<svg width="213" height="80" viewBox="0 0 213 80" fill="none" xmlns="http://www.w3.org/2000/svg">
<rect width="213" height="80" fill="#1E1E1E"/>
<rect width="213" height="80" fill="white"/>
<g opacity="0.2">
<g filter="url(#filter0_f_0_1)">
<ellipse rx="24.4751" ry="36.3726" transform="matrix(0.980123 0.198391 -0.819997 0.572367 106.117 29.323)" fill="#21FCC7"/>
</g>
<g filter="url(#filter1_f_0_1)">
<ellipse rx="29.7" ry="51.192" transform="matrix(0.769457 0.638699 -0.985821 0.167799 139.681 52.4407)" fill="#3E4FEC"/>
</g>
<g filter="url(#filter2_f_0_1)">
<ellipse rx="36.8333" ry="26.5239" transform="matrix(0.769457 0.638699 -0.985821 0.167799 54.4895 27.9761)" fill="#F7D481"/>
</g>
</g>
<rect x="21" y="19.3193" width="44.6808" height="44.6808" fill="#625EFF" fill-opacity="0.2"/>
<rect x="24.3203" y="16" width="44.6808" height="44.6808" fill="#625EFF"/>
<path d="M41.2232 43.777C40.8894 43.4433 40.348 43.4433 40.0142 43.777L30.9535 52.8382C30.6197 53.1719 30.6197 53.7134 30.9535 54.0472C31.1201 54.2139 31.3392 54.2974 31.558 54.2974C31.7767 54.2974 31.9954 54.2139 32.1625 54.0472L41.2232 44.9842C41.557 44.6504 41.557 44.1097 41.2232 43.777Z" fill="white"/>
<path d="M33.6742 46.4952L39.6945 40.475C40.0282 40.1412 40.0282 39.5997 39.6945 39.266C39.3607 38.9322 38.8211 38.9322 38.4874 39.266L32.4671 45.2862C32.1334 45.62 32.1334 46.1614 32.4671 46.4952C32.6338 46.6619 32.8522 46.7454 33.0709 46.7454C33.2896 46.7454 33.5075 46.6619 33.6742 46.4952Z" fill="white"/>
<path d="M44.5245 45.307L38.5042 51.3291C38.1705 51.6617 38.1705 52.2032 38.5042 52.5362C38.6709 52.7029 38.8893 52.7865 39.108 52.7865C39.3267 52.7865 39.5443 52.7029 39.7113 52.5362L45.7335 46.516C46.0673 46.1822 46.0673 45.6407 45.7335 45.307C45.3997 44.9732 44.8579 44.9732 44.5245 45.307Z" fill="white"/>
<path d="M45.7824 26.3418L48.4694 36.3828C48.5149 36.5523 48.6041 36.7069 48.7282 36.831C48.8524 36.9552 49.007 37.0444 49.1765 37.0899L59.2175 39.7769C59.386 39.822 59.5635 39.8223 59.7322 39.7777C59.9009 39.733 60.055 39.645 60.1791 39.5223C60.3042 39.3982 60.3943 39.2432 60.4402 39.0731C60.4862 38.903 60.4864 38.7238 60.4407 38.5536L57.7467 28.5197C57.7012 28.3502 57.612 28.1956 57.4879 28.0714C57.3637 27.9473 57.2091 27.8581 57.0396 27.8126L47.0057 25.1185C46.8355 25.0729 46.6563 25.0731 46.4862 25.1191C46.316 25.165 46.1611 25.2551 46.037 25.3802C45.9143 25.5043 45.8263 25.6584 45.7816 25.8271C45.737 25.9958 45.7373 26.1733 45.7824 26.3418V26.3418ZM55.9365 29.6228L58.0578 37.401L50.2796 35.2797L48.1583 27.5015L55.9365 29.6228ZM56.8769 40.7032L47.4512 38.1081L44.8844 28.6541C44.8504 28.5266 44.7916 28.4071 44.7113 28.3025C44.631 28.1979 44.5307 28.1102 44.4164 28.0445C44.302 27.9787 44.1758 27.9363 44.0449 27.9196C43.9141 27.9028 43.7813 27.9121 43.654 27.947C43.3995 28.0171 43.183 28.1852 43.0519 28.4143C42.9207 28.6435 42.8855 28.9152 42.954 29.1703L45.641 39.2112C45.6864 39.3807 45.7757 39.5353 45.8998 39.6595C46.0239 39.7836 46.1786 39.8729 46.3481 39.9183L56.389 42.6053C56.644 42.6738 56.9158 42.6386 57.145 42.5074C57.3741 42.3763 57.5421 42.1598 57.6123 41.9053C57.6472 41.778 57.6565 41.6452 57.6397 41.5143C57.623 41.3835 57.5806 41.2573 57.5148 41.1429C57.4491 41.0286 57.3614 40.9283 57.2568 40.848C57.1522 40.7677 57.0327 40.7088 56.9052 40.6749L56.8769 40.7032ZM54.0485 43.5316L44.6228 40.9365L42.056 31.4825C42.022 31.355 41.9632 31.2356 41.8829 31.1309C41.8025 31.0263 41.7023 30.9386 41.588 30.8729C41.4736 30.8072 41.3474 30.7647 41.2165 30.748C41.0857 30.7313 40.9528 30.7406 40.8256 30.7754C40.5711 30.8456 40.3546 31.0136 40.2234 31.2428C40.0923 31.4719 40.0571 31.7437 40.1256 31.9987L42.8126 42.0396C42.858 42.2092 42.9473 42.3638 43.0714 42.4879C43.1955 42.612 43.3501 42.7013 43.5197 42.7467L53.5606 45.4337C53.8156 45.5022 54.0874 45.467 54.3165 45.3358C54.5457 45.2047 54.7137 44.9882 54.7839 44.7337C54.8187 44.6065 54.828 44.4736 54.8113 44.3428C54.7946 44.2119 54.7521 44.0857 54.6864 43.9713C54.6207 43.857 54.533 43.7568 54.4284 43.6764C54.3237 43.5961 54.2042 43.5373 54.0768 43.5033L54.0485 43.5316Z" fill="white"/>
<path d="M88.2756 51V24.8182H93.8111V46.4361H105.036V51H88.2756ZM114.199 51.3707C112.946 51.3707 111.829 51.1534 110.849 50.7188C109.869 50.2756 109.093 49.6236 108.522 48.7628C107.96 47.8935 107.679 46.8111 107.679 45.5156C107.679 44.4247 107.879 43.5085 108.279 42.767C108.68 42.0256 109.225 41.429 109.916 40.9773C110.606 40.5256 111.39 40.1847 112.268 39.9545C113.154 39.7244 114.083 39.5625 115.055 39.4688C116.197 39.3494 117.118 39.2386 117.816 39.1364C118.515 39.0256 119.022 38.8636 119.338 38.6506C119.653 38.4375 119.811 38.1222 119.811 37.7045V37.6278C119.811 36.8182 119.555 36.1918 119.044 35.7486C118.541 35.3054 117.825 35.0838 116.896 35.0838C115.916 35.0838 115.136 35.3011 114.556 35.7358C113.977 36.1619 113.593 36.6989 113.406 37.3466L108.369 36.9375C108.625 35.7443 109.127 34.7131 109.877 33.8438C110.627 32.9659 111.595 32.2926 112.779 31.8239C113.973 31.3466 115.353 31.108 116.922 31.108C118.012 31.108 119.056 31.2358 120.054 31.4915C121.059 31.7472 121.95 32.1435 122.725 32.6804C123.51 33.2173 124.127 33.9077 124.579 34.7514C125.031 35.5866 125.257 36.5881 125.257 37.7557V51H120.092V48.277H119.939C119.623 48.8906 119.201 49.4318 118.673 49.9006C118.145 50.3608 117.51 50.723 116.768 50.9872C116.027 51.2429 115.17 51.3707 114.199 51.3707ZM115.758 47.6122C116.559 47.6122 117.267 47.4545 117.88 47.1392C118.494 46.8153 118.975 46.3807 119.325 45.8352C119.674 45.2898 119.849 44.6719 119.849 43.9815V41.8977C119.679 42.0085 119.444 42.1108 119.146 42.2045C118.856 42.2898 118.528 42.3707 118.162 42.4474C117.795 42.5156 117.429 42.5795 117.062 42.6392C116.696 42.6903 116.363 42.7372 116.065 42.7798C115.426 42.8736 114.868 43.0227 114.39 43.2273C113.913 43.4318 113.542 43.7088 113.278 44.0582C113.014 44.3991 112.882 44.8253 112.882 45.3366C112.882 46.0781 113.15 46.6449 113.687 47.0369C114.233 47.4205 114.923 47.6122 115.758 47.6122ZM134.928 39.6477V51H129.482V31.3636H134.672V34.8281H134.902C135.337 33.6861 136.066 32.7827 137.088 32.1179C138.111 31.4446 139.351 31.108 140.809 31.108C142.172 31.108 143.361 31.4062 144.375 32.0028C145.39 32.5994 146.178 33.4517 146.74 34.5597C147.303 35.6591 147.584 36.9716 147.584 38.4972V51H142.138V39.4688C142.147 38.267 141.84 37.3295 141.218 36.6562C140.596 35.9744 139.739 35.6335 138.648 35.6335C137.915 35.6335 137.267 35.7912 136.705 36.1065C136.151 36.4219 135.716 36.8821 135.401 37.4872C135.094 38.0838 134.936 38.804 134.928 39.6477ZM160.749 51.3835C158.737 51.3835 157.007 50.9574 155.558 50.1051C154.118 49.2443 153.01 48.0511 152.234 46.5256C151.467 45 151.084 43.2443 151.084 41.2585C151.084 39.2472 151.472 37.483 152.247 35.9659C153.031 34.4403 154.143 33.2514 155.584 32.3991C157.024 31.5384 158.737 31.108 160.723 31.108C162.436 31.108 163.936 31.419 165.223 32.0412C166.51 32.6634 167.528 33.5369 168.278 34.6619C169.028 35.7869 169.442 37.108 169.518 38.625H164.379C164.234 37.6449 163.851 36.8565 163.229 36.2599C162.615 35.6548 161.81 35.3523 160.812 35.3523C159.969 35.3523 159.232 35.5824 158.601 36.0426C157.979 36.4943 157.493 37.1548 157.143 38.0241C156.794 38.8935 156.619 39.946 156.619 41.1818C156.619 42.4347 156.79 43.5 157.131 44.3778C157.48 45.2557 157.97 45.9247 158.601 46.3849C159.232 46.8452 159.969 47.0753 160.812 47.0753C161.435 47.0753 161.993 46.9474 162.487 46.6918C162.99 46.4361 163.403 46.0653 163.727 45.5795C164.06 45.0852 164.277 44.4929 164.379 43.8026H169.518C169.433 45.3026 169.024 46.6236 168.291 47.7656C167.567 48.8991 166.565 49.7855 165.287 50.4247C164.009 51.0639 162.496 51.3835 160.749 51.3835ZM181.954 51.3835C179.934 51.3835 178.196 50.9744 176.738 50.1562C175.289 49.3295 174.173 48.1619 173.389 46.6534C172.605 45.1364 172.213 43.3423 172.213 41.2713C172.213 39.2514 172.605 37.4787 173.389 35.9531C174.173 34.4276 175.277 33.2386 176.7 32.3864C178.132 31.5341 179.811 31.108 181.737 31.108C183.032 31.108 184.238 31.3168 185.355 31.7344C186.48 32.1435 187.46 32.7614 188.295 33.5881C189.139 34.4148 189.795 35.4545 190.264 36.7074C190.733 37.9517 190.967 39.4091 190.967 41.0795V42.5753H174.386V39.2003H185.841C185.841 38.4162 185.67 37.7216 185.329 37.1165C184.988 36.5114 184.515 36.0384 183.91 35.6974C183.314 35.348 182.619 35.1733 181.826 35.1733C181 35.1733 180.267 35.3651 179.627 35.7486C178.997 36.1236 178.502 36.6307 178.145 37.2699C177.787 37.9006 177.603 38.6037 177.595 39.3793V42.5881C177.595 43.5597 177.774 44.3991 178.132 45.1065C178.498 45.8139 179.014 46.3594 179.679 46.7429C180.343 47.1264 181.132 47.3182 182.044 47.3182C182.649 47.3182 183.203 47.233 183.706 47.0625C184.208 46.892 184.639 46.6364 184.997 46.2955C185.355 45.9545 185.627 45.5369 185.815 45.0426L190.852 45.375C190.596 46.5852 190.072 47.642 189.279 48.5455C188.495 49.4403 187.481 50.1392 186.237 50.642C185.001 51.1364 183.574 51.3835 181.954 51.3835Z" fill="#333333"/>
<defs>
<filter id="filter0_f_0_1" x="-552.16" y="-612.059" width="1316.55" height="1282.76" filterUnits="userSpaceOnUse" color-interpolation-filters="sRGB">
<feFlood flood-opacity="0" result="BackgroundImageFix"/>
<feBlend mode="normal" in="SourceGraphic" in2="BackgroundImageFix" result="shape"/>
<feGaussianBlur stdDeviation="310" result="effect1_foregroundBlur_0_1"/>
</filter>
<filter id="filter1_f_0_1" x="-535.732" y="-588.388" width="1350.83" height="1281.66" filterUnits="userSpaceOnUse" color-interpolation-filters="sRGB">
<feFlood flood-opacity="0" result="BackgroundImageFix"/>
<feBlend mode="normal" in="SourceGraphic" in2="BackgroundImageFix" result="shape"/>
<feGaussianBlur stdDeviation="310" result="effect1_foregroundBlur_0_1"/>
</filter>
<filter id="filter2_f_0_1" x="-604.072" y="-615.971" width="1317.12" height="1287.89" filterUnits="userSpaceOnUse" color-interpolation-filters="sRGB">
<feFlood flood-opacity="0" result="BackgroundImageFix"/>
<feBlend mode="normal" in="SourceGraphic" in2="BackgroundImageFix" result="shape"/>
<feGaussianBlur stdDeviation="310" result="effect1_foregroundBlur_0_1"/>
</filter>
</defs>
</svg>
